{
  "accessors": [
    {
      "bufferView": 2,
      "componentType": 5126,
      "count": 9343,
      "max": [
        1.9297640323638916,
        10.251341819763184,
        1.9768329858779907
      ],
      "min": [
        -2.1396720409393311,
        4.398015022277832,
        -4.9776301383972168
      ],
      "type": "VEC3"
    },
    {
      "bufferView": 2,
      "byteOffset": 112116,
      "componentType": 5126,
      "count": 9343,
      "max": [
        0.99992191791534424,
        0.99963933229446411,
        0.99967986345291138
      ],
      "min": [
        -0.999869704246521,
        -0.99907022714614868,
        -0.99893379211425781
      ],
      "type": "VEC3"
    },
    {
      "bufferView": 1,
      "componentType": 5126,
      "count": 9343,
      "max": [
        0.99575001001358032,
        0.99572098255157471
      ],
      "min": [
        0.0041729998774826527,
        0.0041709998622536659
      ],
      "type": "VEC2"
    },
    {
      "bufferView": 0,
      "componentType": 5125,
      "count": 44532,
      "max": [
        9342
      ],
      "min": [
        0
      ],
      "type": "SCALAR"
    }
  ],
  "asset": {
    "extras": {
      "author": "JevinJones (https://sketchfab.com/JevinJ)",
      "license": "CC-BY-4.0 (http://creativecommons.org/licenses/by/4.0/)",
      "source": "https://sketchfab.com/3d-models/amanita-muscaria-mushroom-e5964d20519f41afba07e01cf1aa96a4",
      "title": "Amanita muscaria mushroom"
    },
    "generator": "Sketchfab-7.58.0",
    "version": "2.0"
  },
  "bufferViews": [
    {
      "buffer": 0,
      "byteLength": 178128,
      "byteOffset": 0,
      "name": "floatBufferViews",
      "target": 34963
    },
    {
      "buffer": 0,
      "byteLength": 74744,
      "byteOffset": 178128,
      "byteStride": 8,
      "name": "floatBufferViews",
      "target": 34962
    },
    {
      "buffer": 0,
      "byteLength": 224232,
      "byteOffset": 252872,
      "byteStride": 12,
      "name": "floatBufferViews",
      "target": 34962
    }
  ],
  "buffers": [
    {
      "byteLength": 477104,
      "uri": "scene.bin"
    }
  ],
  "extensionsUsed": [
    "KHR_materials_unlit"
  ],
  "images": [
    {
      "uri": "textures/AmanitaMuscaria_rt_baseColor.png"
    }
  ],
  "materials": [
    {
      "doubleSided": true,
      "extensions": {
        "KHR_materials_unlit": {}
      },
      "name": "AmanitaMuscaria_rt",
      "pbrMetallicRoughness": {
        "baseColorFactor": [
          1,
          1,
          1,
          1
        ],
        "baseColorTexture": {
          "index": 0,
          "texCoord": 0
        },
        "metallicFactor": 0,
        "roughnessFactor": 1
      }
    }
  ],
  "meshes": [
    {
      "primitives": [
        {
          "attributes": {
            "NORMAL": 1,
            "POSITION": 0,
            "TEXCOORD_0": 2
          },
          "indices": 3,
          "material": 0,
          "mode": 4
        }
      ]
    }
  ],
  "nodes": [
    {
      "children": [
        1
      ],
      "name": "RootNode (gltf orientation matrix)",
      "rotation": [
        -0.70710678118654746,
        -0,
        -0,
        0.70710678118654757
      ]
    },
    {
      "children": [
        2
      ],
      "matrix": [
        1,
        0,
        0,
        0,
        0,
        0.83579087257385254,
        0.54904788732528687,
        0,
        0,
        -0.54904788732528687,
        0.83579087257385254,
        0,
        0,
        0.37899094820022583,
        -4.2679824829101562,
        1
      ],
      "name": "RootNode (model correction matrix)"
    },
    {
      "children": [
        3
      ],
      "name": "AmanitaMuscaria_rt.OBJ.cleaner.materialmerger.gles"
    },
    {
      "mesh": 0,
      "name": ""
    }
  ],
  "samplers": [
    {
      "magFilter": 9729,
      "minFilter": 9987,
      "wrapS": 10497,
      "wrapT": 10497
    }
  ],
  "scene": 0,
  "scenes": [
    {
      "name": "OSG_Scene",
      "nodes": [
        0
      ]
    }
  ],
  "textures": [
    {
      "sampler": 0,
      "source": 0
    }
  ]
}

